HIERARCHY
ROOT SpineBase
{
  OFFSET 0.000000 0.000000 0.000000
  CHANNELS 6 Xposition Yposition Zposition Zrotation Xrotation Yrotation
  JOINT SpineMid
  {
    OFFSET -0.000000 33.027905 -0.000000
    CHANNELS 3 Zrotation Xrotation Yrotation
    JOINT SpineShoulder
    {
      OFFSET -0.033758 24.296581 -0.467402
      CHANNELS 3 Zrotation Xrotation Yrotation
      JOINT Neck
      {
        OFFSET -0.030952 8.036805 -0.399498
        CHANNELS 3 Zrotation Xrotation Yrotation
        JOINT Head
        {
          OFFSET 0.770131 10.548317 1.806487
          CHANNELS 3 Zrotation Xrotation Yrotation
          End Site
          {
            OFFSET 0 0 0
          }
        }
      }
      JOINT ShoulderLeft
      {
        OFFSET -10.354812 -8.105330 -2.796214
        CHANNELS 3 Zrotation Xrotation Yrotation
        JOINT ElbowLeft
        {
          OFFSET -11.242304 -20.417415 5.651477
          CHANNELS 3 Zrotation Xrotation Yrotation
          JOINT WristLeft
          {
            OFFSET -4.645636 -6.751795 21.530402
            CHANNELS 3 Zrotation Xrotation Yrotation
            JOINT HandLeft
            {
              OFFSET -0.885094 -5.471312 -2.214743
              CHANNELS 3 Zrotation Xrotation Yrotation
              JOINT HandTipLeft
              {
                OFFSET -0.939261 0.874384 1.153550
                CHANNELS 3 Zrotation Xrotation Yrotation
                End Site
                {
                  OFFSET 0 0 0
                }
              }
              JOINT ThumbLeft
              {
                OFFSET 0.344143 0.063688 -2.022464
                CHANNELS 3 Zrotation Xrotation Yrotation
                End Site
                {
                  OFFSET 0 0 0
                }
              }
            }
          }
        }
      }
      JOINT ShoulderRight
      {
        OFFSET 9.823341 -8.595668 -12.603318
        CHANNELS 3 Zrotation Xrotation Yrotation
        JOINT ElbowRight
        {
          OFFSET 4.938159 -23.625843 0.849489
          CHANNELS 3 Zrotation Xrotation Yrotation
          JOINT WristRight
          {
            OFFSET 2.741934 -19.180571 6.515141
            CHANNELS 3 Zrotation Xrotation Yrotation
            JOINT HandRight
            {
              OFFSET -1.643529 -3.959971 3.477389
              CHANNELS 3 Zrotation Xrotation Yrotation
              JOINT HandTipRight
              {
                OFFSET 1.144456 -6.778595 2.618766
                CHANNELS 3 Zrotation Xrotation Yrotation
                End Site
                {
                  OFFSET 0 0 0
                }
              }
              JOINT ThumbRight
              {
                OFFSET -2.642006 -0.552221 -2.944853
                CHANNELS 3 Zrotation Xrotation Yrotation
                End Site
                {
                  OFFSET 0 0 0
                }
              }
            }
          }
        }
      }
    }
  }
  JOINT HipLeft
  {
    OFFSET -6.318466 -0.068303 0.037286
    CHANNELS 3 Zrotation Xrotation Yrotation
    JOINT KneeLeft
    {
      OFFSET 9.949204 -33.433891 -2.056798
      CHANNELS 3 Zrotation Xrotation Yrotation
      JOINT AnkleLeft
      {
        OFFSET -6.930479 -38.054795 -0.131950
        CHANNELS 3 Zrotation Xrotation Yrotation
        JOINT FootLeft
        {
          OFFSET -4.141157 -3.645787 -10.964670
          CHANNELS 3 Zrotation Xrotation Yrotation
          End Site
          {
            OFFSET 0 0 0
          }
        }
      }
    }
  }
  JOINT HipRight
  {
    OFFSET 6.358722 1.493758 -5.610785
    CHANNELS 3 Zrotation Xrotation Yrotation
    JOINT KneeRight
    {
      OFFSET 9.507076 -26.329494 8.424000
      CHANNELS 3 Zrotation Xrotation Yrotation
      JOINT AnkleRight
      {
        OFFSET -18.108670 -30.873602 13.594732
        CHANNELS 3 Zrotation Xrotation Yrotation
        JOINT FootRight
        {
          OFFSET -4.152759 -3.839783 -11.061515
          CHANNELS 3 Zrotation Xrotation Yrotation
          End Site
          {
            OFFSET 0 0 0
          }
        }
      }
    }
  }
}
MOTION
Frames: 15
Frame Time: 0.033333
-2.219650 75.790512 255.039641 1.551414 4.013656 30.373733 0.189660 0.409180 -30.401180 -0.217395 0.223204 0.036058 0.148550 -3.360582 -0.376901 0.000000 0.000000 0.000000 69.853494 23.961102 -13.913211 -72.260352 -24.221530 -18.007210 6.204215 -10.008741 -1.515438 103.273882 5.033567 -80.710014 0.000000 0.000000 0.000000 0.000000 0.000000 0.000000 -1.296719 -4.683976 -0.135277 4.303196 3.119277 1.797998 1.488594 8.862623 -2.582500 1.423718 -1.501925 5.050681 0.000000 0.000000 0.000000 0.000000 0.000000 0.000000 -3.577288 -0.622598 -29.941274 2.485329 -1.939202 -0.472023 -1.116772 0.978339 -1.342104 0.000000 0.000000 0.000000 -38.898839 10.745484 -44.156076 62.494283 33.748115 3.025303 -27.748573 -12.716892 -8.168810 0.000000 0.000000 0.000000
-2.380017 76.035678 254.984684 1.465587 4.451992 28.687245 0.096734 0.349280 -28.718993 -0.190619 0.167562 0.035437 0.659758 -3.650784 -0.404038 0.000000 0.000000 0.000000 70.229239 24.132130 -14.232954 -72.693009 -24.815673 -18.287417 6.243298 -9.933768 -1.470700 103.406680 5.270816 -80.714599 0.000000 0.000000 0.000000 0.000000 0.000000 0.000000 -0.448187 -3.607535 0.237395 2.915606 2.516315 1.451670 2.308000 8.246944 -2.296266 1.183845 -3.161249 4.707008 0.000000 0.000000 0.000000 0.000000 0.000000 0.000000 -3.765419 -1.656730 -28.436048 2.209727 -1.544950 -0.320992 -0.984012 1.148815 -1.531574 0.000000 0.000000 0.000000 -38.764166 9.547239 -42.764905 62.237722 33.054700 3.417515 -27.792532 -12.446281 -8.431633 0.000000 0.000000 0.000000
-2.527963 76.292986 254.927697 1.349432 4.929604 26.224917 -0.056612 0.235173 -26.261679 -0.023042 -0.160021 0.047902 1.262829 -4.205263 -0.404986 0.000000 0.000000 0.000000 70.275838 24.337233 -14.758795 -72.778895 -25.452114 -18.462100 6.311110 -9.801442 -1.393798 103.479920 5.413587 -80.714777 0.000000 0.000000 0.000000 0.000000 0.000000 0.000000 0.342807 -2.714902 0.495250 1.343099 2.115944 1.055515 4.688869 9.568380 -1.511754 -0.706672 -7.722442 3.459282 0.000000 0.000000 0.000000 0.000000 0.000000 0.000000 -3.843697 -2.861568 -26.174347 1.808884 -1.157003 -0.142051 -0.773966 1.409586 -1.722983 0.000000 0.000000 0.000000 -38.576302 8.036490 -40.633763 61.982231 31.891057 4.168955 -27.861233 -11.830900 -8.789988 0.000000 0.000000 0.000000
-2.484847 76.537507 254.822343 1.484836 4.948215 23.358978 -0.008923 -0.477599 -23.371306 -0.007606 -0.095188 0.062302 1.395600 -4.116221 -0.481416 0.000000 0.000000 0.000000 69.713817 24.620093 -15.732667 -72.545388 -26.095083 -18.530063 6.399448 -9.634853 -1.289979 103.451832 5.442602 -80.697753 0.000000 0.000000 0.000000 0.000000 0.000000 0.000000 0.119280 -0.783985 0.737976 0.544729 1.020144 0.641213 6.263788 9.199459 -0.215371 -1.805756 -9.380885 2.055874 0.000000 0.000000 0.000000 0.000000 0.000000 0.000000 -4.052102 -3.565955 -23.515931 1.442356 -0.718284 0.052095 -0.141828 1.649151 -2.660525 0.000000 0.000000 0.000000 -38.560029 6.797121 -37.874279 61.522212 30.551655 5.071314 -27.333216 -11.144529 -9.713468 0.000000 0.000000 0.000000
-2.399038 76.662218 254.751187 1.869367 4.403701 20.788087 0.049876 -1.195097 -20.773774 0.013181 0.061205 0.079585 2.100097 -3.617636 -0.674788 0.000000 0.000000 0.000000 68.863010 24.969663 -16.981701 -72.011494 -26.581068 -18.447213 6.487456 -9.454873 -1.193374 103.504847 5.412354 -80.725087 0.000000 0.000000 0.000000 0.000000 0.000000 0.000000 0.508814 0.484145 0.777400 -0.286783 0.491489 0.581106 6.493470 8.049907 0.995178 -2.107678 -9.223332 0.781164 0.000000 0.000000 0.000000 0.000000 0.000000 0.000000 -4.151810 -3.568729 -21.087926 0.735888 0.411129 0.074274 0.534433 0.787734 -2.467441 0.000000 0.000000 0.000000 -38.546222 6.136334 -35.023165 60.841383 29.181423 5.961575 -26.894746 -10.648360 -9.674609 0.000000 0.000000 0.000000
-2.195307 76.675719 254.693079 2.509193 3.465342 19.093283 0.178144 -1.808010 -19.041822 0.104081 0.186533 0.106244 2.954886 -3.044404 -0.970419 0.000000 0.000000 0.000000 67.567671 25.312544 -18.232540 -71.637399 -27.249791 -18.708328 6.819423 -8.697550 -0.869941 103.604808 5.313556 -80.784877 0.000000 0.000000 0.000000 0.000000 0.000000 0.000000 0.704009 1.460063 0.650516 -0.583516 0.244917 0.833877 5.820015 6.034937 2.324672 -2.157382 -7.967068 -0.797707 0.000000 0.000000 0.000000 0.000000 0.000000 0.000000 -4.509144 -2.927929 -19.475824 0.350759 -0.000479 0.326247 0.968713 1.243123 -2.259550 0.000000 0.000000 0.000000 -38.711689 6.241095 -32.716012 60.045658 28.077146 6.627084 -26.362168 -10.411005 -9.244164 0.000000 0.000000 0.000000
-1.942274 76.514988 254.666791 3.448249 1.977347 18.889566 0.229129 -2.401983 -18.775757 0.149415 0.210544 0.134352 3.320353 -1.240868 -1.419028 0.000000 0.000000 0.000000 66.343136 25.980939 -20.260556 -70.660331 -27.458925 -18.302147 6.819153 -8.696272 -0.870140 103.733513 5.142837 -80.870552 0.000000 0.000000 0.000000 0.000000 0.000000 0.000000 1.283322 2.368980 0.349222 -0.682638 0.478115 1.433893 4.354296 3.663718 3.610627 -1.605268 -4.760428 -2.240855 0.000000 0.000000 0.000000 0.000000 0.000000 0.000000 -5.008525 -1.328051 -19.211858 -0.101714 0.199214 0.351141 1.345969 0.492268 -1.072685 0.000000 0.000000 0.000000 -38.972350 7.436692 -31.391288 59.079362 27.402313 6.965396 -25.902351 -10.699392 -7.935728 0.000000 0.000000 0.000000
-1.616346 76.248952 254.623054 4.634663 0.144859 20.346898 0.139881 -2.757602 -20.138499 0.149094 0.224052 0.162005 3.643402 0.577123 -1.932392 0.000000 0.000000 0.000000 65.105691 26.715336 -22.276699 -69.658712 -27.514542 -17.871388 6.818833 -8.694811 -0.870364 103.850224 4.886075 -80.968464 0.000000 0.000000 0.000000 0.000000 0.000000 0.000000 2.263145 2.922829 -0.086445 -1.261304 1.753269 2.121864 1.305382 -1.086228 4.278924 1.333960 -2.355217 -3.041328 0.000000 0.000000 0.000000 0.000000 0.000000 0.000000 -5.549566 1.049703 -20.451305 -0.464414 0.301226 0.282298 1.613232 -0.575751 0.477691 0.000000 0.000000 0.000000 -39.345375 9.724687 -31.288165 58.083737 27.137298 7.062793 -25.418885 -11.292599 -6.234140 0.000000 0.000000 0.000000
-1.418977 75.898726 254.639367 5.724198 -1.851298 19.624334 0.147385 -2.900612 -19.286590 0.099177 0.152911 0.188880 4.049034 2.511196 -2.490226 0.000000 0.000000 0.000000 65.107137 27.630087 -24.854058 -69.599194 -27.785097 -17.865017 6.818544 -8.693898 -0.870473 103.910883 4.536898 -81.062959 0.000000 0.000000 0.000000 0.000000 0.000000 0.000000 3.521691 3.019285 -0.642406 -2.024420 3.377745 2.814129 -1.663930 -5.263851 4.671497 7.771833 -1.875822 -2.636224 0.000000 0.000000 0.000000 0.000000 0.000000 0.000000 -5.902495 2.998628 -19.558179 -0.883576 0.822895 0.300237 1.651461 -1.952137 2.717161 0.000000 0.000000 0.000000 -39.542583 10.775937 -29.176644 56.828174 26.710709 7.088641 -25.107087 -12.263901 -3.856858 0.000000 0.000000 0.000000
-1.301782 75.434167 254.667776 6.684474 -3.836187 21.060478 0.005189 -2.708204 -20.582840 0.009516 0.089290 0.210952 4.359450 4.595508 -3.035646 0.000000 0.000000 0.000000 65.536874 28.347055 -27.010704 -69.785655 -27.870508 -17.952678 6.818278 -8.692698 -0.870656 104.381080 4.954975 -81.164850 0.000000 0.000000 0.000000 0.000000 0.000000 0.000000 4.866993 2.507886 -1.218883 -2.686008 5.427866 3.510254 -4.542628 -9.646763 5.034599 15.368977 -2.577926 -2.374533 0.000000 0.000000 0.000000 0.000000 0.000000 0.000000 -5.836949 5.242857 -20.749276 -1.251757 1.268245 0.249218 1.612913 -3.391168 4.762900 0.000000 0.000000 0.000000 -39.551857 12.754399 -29.090263 55.806238 26.975904 6.813424 -24.824563 -13.323453 -1.689494 0.000000 0.000000 0.000000
-1.325647 74.978045 254.626592 7.349021 -5.482312 22.191388 -0.124794 -2.161847 -21.598984 -0.090112 0.006564 0.226078 4.721247 6.038650 -3.422243 0.000000 0.000000 0.000000 66.004119 28.704076 -28.179513 -71.846058 -28.435279 -22.225889 8.978611 -4.926047 1.611536 91.039962 -4.217096 -76.917592 0.000000 0.000000 0.000000 0.000000 0.000000 0.000000 6.141824 1.564230 -1.675253 -3.151890 7.434921 4.089763 -6.912260 -13.981522 5.509111 20.456575 -2.843825 -3.337558 0.000000 0.000000 0.000000 0.000000 0.000000 0.000000 -5.357759 6.972405 -21.721366 -1.766283 1.573924 0.225945 1.606632 -4.503040 6.289244 0.000000 0.000000 0.000000 -39.300164 14.186594 -29.037521 54.887495 27.342669 6.473841 -24.586092 -14.269049 -0.037608 0.000000 0.000000 0.000000
-1.544344 74.558421 254.571965 7.614013 -6.739473 23.419805 -0.224250 -1.522804 -22.755920 -0.151983 -0.245556 0.241051 4.969225 7.261169 -3.653483 0.000000 0.000000 0.000000 66.654835 29.010660 -29.185035 -71.309775 -28.156889 -21.003347 8.565851 -6.622571 0.980344 95.351266 -1.045219 -78.657909 0.000000 0.000000 0.000000 0.000000 0.000000 0.000000 7.209780 0.780818 -2.023906 -3.382079 8.797313 4.490833 -8.051276 -16.543884 6.205595 21.192967 -3.577918 -4.946833 0.000000 0.000000 0.000000 0.000000 0.000000 0.000000 -4.281084 8.190113 -22.921346 -2.494216 1.635131 0.200658 1.644230 -5.216861 7.123813 0.000000 0.000000 0.000000 -38.651937 15.298499 -29.429749 54.131181 27.740799 6.136420 -24.406143 -14.945035 0.893794 0.000000 0.000000 0.000000
-1.737208 74.209524 254.301171 7.646385 -7.335376 24.105136 -0.325246 -0.984489 -23.417864 -0.138255 -0.598334 0.253859 4.788274 7.827057 -3.605623 0.000000 0.000000 0.000000 67.177154 29.170631 -29.730120 -68.493955 -26.627738 -15.125450 5.555158 -11.789067 -2.655709 109.943738 7.589406 -84.160563 0.000000 0.000000 0.000000 0.000000 0.000000 0.000000 7.617683 0.481449 -2.189267 -3.173250 9.358783 4.663057 -8.797028 -16.808627 6.007178 20.874503 -5.319472 -5.101115 0.000000 0.000000 0.000000 0.000000 0.000000 0.000000 -3.442802 8.508535 -23.704944 -3.092140 1.615953 0.271498 1.690710 -5.322799 7.214179 0.000000 0.000000 0.000000 -38.212132 15.686978 -29.839229 53.723847 27.921495 6.061594 -24.263551 -14.968912 0.998445 0.000000 0.000000 0.000000
-1.721652 74.001327 253.774558 7.760476 -7.691063 24.661129 -0.267848 -0.932879 -23.946036 -0.294638 -0.445484 0.252641 3.840909 8.229726 -3.357925 0.000000 0.000000 0.000000 67.253143 29.218007 -29.882588 -63.168063 -22.667935 -2.702979 -3.709684 -19.413313 -12.123075 139.060473 28.955366 -96.615071 0.000000 0.000000 0.000000 0.000000 0.000000 0.000000 7.061221 0.925201 -2.165000 -2.473691 9.182337 4.631470 -9.562804 -17.590621 5.635081 19.425640 -3.799345 -5.865303 0.000000 0.000000 0.000000 0.000000 0.000000 0.000000 -3.248286 8.588210 -24.330043 -3.348150 1.603624 0.422105 1.988621 -4.990801 6.269415 0.000000 0.000000 0.000000 -38.240042 15.899679 -30.302929 53.445842 28.130054 6.079305 -23.728367 -14.664096 0.194335 0.000000 0.000000 0.000000
-1.759820 73.849475 253.175772 7.755126 -7.772599 24.989650 -0.311121 -0.690023 -24.276348 -0.347214 -0.343245 0.242740 3.141875 7.909089 -3.031535 0.000000 0.000000 0.000000 67.332828 29.137183 -29.640819 -56.648040 -13.511750 17.200167 -23.835888 -27.391576 -32.612493 170.887709 40.805690 -115.895134 0.000000 0.000000 0.000000 0.000000 0.000000 0.000000 7.221441 0.603903 -2.135125 -2.211160 9.330486 4.687261 -9.645309 -18.685696 6.134872 15.899941 -2.514512 -7.625178 0.000000 0.000000 0.000000 0.000000 0.000000 0.000000 -3.060787 8.336883 -24.766882 -3.666932 1.457024 0.601177 2.096481 -4.521713 6.006824 0.000000 0.000000 0.000000 -38.378796 15.829207 -30.767542 53.502555 28.263613 6.223846 -23.642308 -14.173555 -0.100825 0.000000 0.000000 0.000000
